<svg viewBox="0 0 48 48" xmlns="http://www.w3.org/2000/svg"><g fill="none" stroke="#000" stroke-linecap="round" stroke-linejoin="round"><path d="m24 2.5-18.6517 10.75v21.5l18.6517 10.75 18.6517-10.75v-21.5z"/><path d="m24 2.5-12.312 13.047-6.3397 19.203 18.6517 2.6645 18.6517-2.6645-6.3397-19.203z"/><path d="m24 37.4145-12.312-21.8675h24.624z"/><path d="m24 37.4145v8.0855"/><path d="m11.688 15.547-6.3397-2.297"/><path d="m36.312 15.547 6.3397-2.297"/><path d="m24.6432 23.7244c0 .8269.6432 1.4701 1.4701 1.4701s1.4701-.6432 1.4701-1.4701v-1.4701c0-.8269-.6432-1.4701-1.4701-1.4701-.735 0-1.4701.6432-1.4701 1.4701z"/><path d="m20.4167 22.2543c0-.8269.6432-1.4701 1.4701-1.4701s1.4701.6432 1.4701 1.4701c0 .3675-.1838.735-.4594 1.0107-.6432.4594-2.4808 1.9295-2.4808 1.9295h2.9402"/></g></svg>