P1
#The letter e
6 7
1 1 1 1 1 1
1 0 0 0 0 1
1 0 0 0 0 1
1 1 1 1 1 1
1 0 0 0 0 0
1 0 0 0 0 0
1 1 1 1 1 1
